<?xml version="1.0" encoding="UTF-8" standalone="no"?>
<!-- Created with Inkscape (http://www.inkscape.org/) -->

<svg
   version="1.1"
   id="svg2"
   width="1271.0133"
   height="1313.4268"
   viewBox="0 0 1271.0133 1313.4268"
   sodipodi:docname="atom-society-logo.eps"
   xmlns:inkscape="http://www.inkscape.org/namespaces/inkscape"
   xmlns:sodipodi="http://sodipodi.sourceforge.net/DTD/sodipodi-0.dtd"
   xmlns="http://www.w3.org/2000/svg"
   xmlns:svg="http://www.w3.org/2000/svg">
  <defs
     id="defs6">
    <clipPath
       clipPathUnits="userSpaceOnUse"
       id="clipPath18">
      <path
         d="m 5681.84,5644.43 c 0,-408.74 -432.2,-740.1 -965.35,-740.1 -533.15,0 -965.35,331.36 -965.35,740.1 0,408.74 432.2,740.09 965.35,740.09 533.15,0 965.35,-331.35 965.35,-740.09 z"
         id="path16" />
    </clipPath>
  </defs>
  <sodipodi:namedview
     id="namedview4"
     pagecolor="#ffffff"
     bordercolor="#000000"
     borderopacity="0.25"
     inkscape:showpageshadow="2"
     inkscape:pageopacity="0.0"
     inkscape:pagecheckerboard="0"
     inkscape:deskcolor="#d1d1d1" />
  <g
     id="g8"
     inkscape:groupmode="layer"
     inkscape:label="ink_ext_XXXXXX"
     transform="matrix(1.3333333,0,0,-1.3333333,0,1313.4267)">
    <g
       id="g10"
       transform="scale(0.1)">
      <g
         id="g12">
        <g
           id="g14"
           clip-path="url(#clipPath18)">
          <path
             d="m 4716.5,4924.33 c -521.27,0 -945.36,323.03 -945.36,720.1 0,397.06 424.09,720.09 945.36,720.09 521.26,0 945.34,-323.03 945.34,-720.09 0,-397.07 -424.08,-720.1 -945.34,-720.1"
             style="fill:#214d72;fill-opacity:1;fill-rule:nonzero;stroke:none"
             id="path20" />
          <path
             d="m 4716.49,6384.52 c -533.15,0 -965.35,-331.35 -965.35,-740.09 0,-408.74 432.2,-740.1 965.35,-740.1 533.15,0 965.35,331.36 965.35,740.1 0,408.74 -432.2,740.09 -965.35,740.09 z m 0,-40 c 510.24,0 925.35,-314.06 925.35,-700.09 0,-386.03 -415.11,-700.1 -925.35,-700.1 -510.24,0 -925.35,314.07 -925.35,700.1 0,386.03 415.11,700.09 925.35,700.09"
             style="fill:#152531;fill-opacity:1;fill-rule:nonzero;stroke:none"
             id="path22" />
          <path
             d="m 5639.04,5549.65 c 0,-408.74 -414.75,-740.09 -926.37,-740.09 -511.62,0 -926.37,331.35 -926.37,740.09 0,408.74 414.75,740.09 926.37,740.09 511.62,0 926.37,-331.35 926.37,-740.09"
             style="fill:#1c446c;fill-opacity:1;fill-rule:nonzero;stroke:none"
             id="path24" />
        </g>
      </g>
      <path
         d="M 4712.67,6487.71 V 5866.3"
         style="fill:#2e6cad;fill-opacity:1;fill-rule:nonzero;stroke:none"
         id="path26" />
      <path
         d="m 4712.67,6487.71 c 26.09,-72.78 20.08,-157.12 25.49,-233.03 2.69,-75.28 5.37,-158.13 6.13,-233.03 0.65,-51.78 0.87,-103.56 -0.28,-155.35 h -62.68 c -2.52,128.49 1.26,259.77 5.85,388.38 5.43,75.98 -0.61,160.12 25.49,233.03 v 0"
         style="fill:#152531;fill-opacity:1;fill-rule:nonzero;stroke:none"
         id="path28" />
      <path
         d="m 4559.04,6434.97 v -621.4"
         style="fill:#2e6cad;fill-opacity:1;fill-rule:nonzero;stroke:none"
         id="path30" />
      <path
         d="m 4559.04,6434.97 c 26.09,-72.78 20.08,-157.12 25.49,-233.03 2.69,-75.28 5.37,-158.13 6.13,-233.02 0.65,-51.79 0.87,-103.57 -0.28,-155.35 h -62.68 c -2.52,128.48 1.26,259.76 5.85,388.37 5.43,75.98 -0.61,160.13 25.49,233.03 v 0"
         style="fill:#152531;fill-opacity:1;fill-rule:nonzero;stroke:none"
         id="path32" />
      <path
         d="m 4868.59,6446.43 v -621.4"
         style="fill:#2e6cad;fill-opacity:1;fill-rule:nonzero;stroke:none"
         id="path34" />
      <path
         d="m 4868.59,6446.43 c 26.09,-72.77 20.08,-157.11 25.5,-233.02 2.68,-75.29 5.37,-158.14 6.12,-233.03 0.65,-51.78 0.87,-103.57 -0.28,-155.35 h -62.67 c -2.53,128.49 1.25,259.77 5.84,388.38 5.43,75.98 -0.61,160.12 25.49,233.02 v 0"
         style="fill:#152531;fill-opacity:1;fill-rule:nonzero;stroke:none"
         id="path36" />
      <path
         d="m 5010.76,6393.69 v -621.4"
         style="fill:#2e6cad;fill-opacity:1;fill-rule:nonzero;stroke:none"
         id="path38" />
      <path
         d="m 5010.76,6393.69 c 26.09,-72.77 20.08,-157.11 25.49,-233.02 2.69,-75.29 5.37,-158.14 6.13,-233.03 0.65,-51.78 0.87,-103.56 -0.28,-155.35 h -62.68 c -2.52,128.49 1.26,259.77 5.85,388.38 5.43,75.98 -0.61,160.12 25.49,233.02 v 0"
         style="fill:#152531;fill-opacity:1;fill-rule:nonzero;stroke:none"
         id="path40" />
      <path
         d="m 5155.22,6352.42 v -621.4"
         style="fill:#2e6cad;fill-opacity:1;fill-rule:nonzero;stroke:none"
         id="path42" />
      <path
         d="m 5155.22,6352.42 c 26.08,-72.78 20.08,-157.12 25.49,-233.03 2.69,-75.28 5.37,-158.13 6.13,-233.02 0.65,-51.79 0.87,-103.57 -0.28,-155.35 h -62.68 c -2.52,128.48 1.26,259.77 5.85,388.37 5.43,75.98 -0.61,160.13 25.49,233.03 v 0"
         style="fill:#152531;fill-opacity:1;fill-rule:nonzero;stroke:none"
         id="path44" />
      <path
         d="M 5288.21,6292.8 V 5671.4"
         style="fill:#2e6cad;fill-opacity:1;fill-rule:nonzero;stroke:none"
         id="path46" />
      <path
         d="m 5288.21,6292.8 c 26.09,-72.77 20.08,-157.11 25.49,-233.02 2.69,-75.29 5.38,-158.14 6.13,-233.03 0.65,-51.78 0.87,-103.57 -0.28,-155.35 h -62.68 c -2.52,128.49 1.26,259.77 5.85,388.38 5.43,75.98 -0.61,160.12 25.49,233.02 v 0"
         style="fill:#152531;fill-opacity:1;fill-rule:nonzero;stroke:none"
         id="path48" />
      <path
         d="m 5418.91,6198.79 v -621.4"
         style="fill:#2e6cad;fill-opacity:1;fill-rule:nonzero;stroke:none"
         id="path50" />
      <path
         d="m 5418.91,6198.79 c 26.09,-72.78 20.08,-157.12 25.49,-233.03 2.69,-75.28 5.38,-158.13 6.13,-233.02 0.65,-51.79 0.87,-103.57 -0.28,-155.35 h -62.68 c -2.52,128.48 1.26,259.77 5.85,388.37 5.43,75.98 -0.61,160.13 25.49,233.03 v 0"
         style="fill:#152531;fill-opacity:1;fill-rule:nonzero;stroke:none"
         id="path52" />
      <path
         d="m 4416.87,6393.69 v -621.4"
         style="fill:#2e6cad;fill-opacity:1;fill-rule:nonzero;stroke:none"
         id="path54" />
      <path
         d="m 4416.87,6393.69 c 26.09,-72.77 20.08,-157.11 25.5,-233.02 2.68,-75.29 5.37,-158.14 6.12,-233.03 0.65,-51.78 0.87,-103.56 -0.28,-155.35 h -62.67 c -2.53,128.49 1.25,259.77 5.84,388.38 5.43,75.98 -0.61,160.12 25.49,233.02 v 0"
         style="fill:#152531;fill-opacity:1;fill-rule:nonzero;stroke:none"
         id="path56" />
      <path
         d="m 4272.42,6352.42 v -621.4"
         style="fill:#2e6cad;fill-opacity:1;fill-rule:nonzero;stroke:none"
         id="path58" />
      <path
         d="m 4272.42,6352.42 c 26.08,-72.78 20.08,-157.12 25.49,-233.03 2.68,-75.28 5.37,-158.13 6.12,-233.02 0.65,-51.79 0.88,-103.57 -0.28,-155.35 h -62.67 c -2.52,128.48 1.25,259.77 5.84,388.37 5.44,75.98 -0.6,160.13 25.5,233.03 v 0"
         style="fill:#152531;fill-opacity:1;fill-rule:nonzero;stroke:none"
         id="path60" />
      <path
         d="M 4134.84,6292.8 V 5671.4"
         style="fill:#2e6cad;fill-opacity:1;fill-rule:nonzero;stroke:none"
         id="path62" />
      <path
         d="m 4134.84,6292.8 c 26.08,-72.77 20.08,-157.11 25.49,-233.02 2.68,-75.29 5.37,-158.14 6.12,-233.03 0.66,-51.78 0.88,-103.57 -0.28,-155.35 h -62.67 c -2.52,128.48 1.25,259.77 5.84,388.38 5.44,75.98 -0.6,160.12 25.5,233.02 v 0"
         style="fill:#152531;fill-opacity:1;fill-rule:nonzero;stroke:none"
         id="path64" />
      <path
         d="m 3994.96,6198.79 v -621.4"
         style="fill:#2e6cad;fill-opacity:1;fill-rule:nonzero;stroke:none"
         id="path66" />
      <path
         d="m 3994.96,6198.79 c 26.09,-72.78 20.08,-157.12 25.5,-233.03 2.68,-75.28 5.37,-158.13 6.12,-233.02 0.65,-51.79 0.87,-103.57 -0.28,-155.35 h -62.67 c -2.53,128.48 1.25,259.77 5.84,388.37 5.43,75.98 -0.61,160.13 25.49,233.03 v 0"
         style="fill:#152531;fill-opacity:1;fill-rule:nonzero;stroke:none"
         id="path68" />
      <path
         d="m 3878.67,4428.27 c -127.85,0 -141.04,77.21 -160.98,267.49 -3.79,36.17 -8.09,77.16 -13.93,120.37 -17.81,131.6 -13.06,204.81 15.39,237.37 25.32,28.97 73.41,31.14 143.88,31.14 l 23.87,-0.03 c 5.94,-28.26 21,-148.06 35.99,-653.58 -15.99,-1.83 -30.82,-2.76 -44.22,-2.76"
         style="fill:#5cb0e5;fill-opacity:1;fill-rule:nonzero;stroke:none"
         id="path70" />
      <path
         d="m 3863.02,5100.5 c -150.99,0 -212.45,-9.51 -174.97,-286.5 33.86,-250.33 12.88,-401.59 190.62,-401.59 18.03,0 38.11,1.56 60.5,4.72 -19.64,671.67 -39.83,683.33 -41.2,683.33 -0.05,0 -0.08,-0.02 -0.08,-0.02 -12.1,0 -23.73,0.06 -34.87,0.06 z m 0,-31.72 v 0 l 10.53,-0.01 c 6.51,-43.17 19.75,-181.79 33.05,-623.42 -9.91,-0.82 -19.24,-1.23 -27.93,-1.23 -113.26,0 -125.04,60.87 -145.21,253.29 -3.8,36.28 -8.11,77.4 -13.99,120.84 -16.91,124.96 -13.21,196.4 11.62,224.82 20.91,23.92 65.81,25.71 131.93,25.71"
         style="fill:#152531;fill-opacity:1;fill-rule:nonzero;stroke:none"
         id="path72" />
      <path
         d="m 5545.44,4400.96 c -12.79,0 -27.13,1.31 -42.74,3.91 16.21,280.06 44.25,607.96 50.5,679.8 l 18.14,0.02 c 66.03,0 107.66,-1.77 128.88,-26.37 25.66,-29.76 27.52,-99.88 6.41,-242.01 -7.13,-47.94 -12.61,-93.39 -17.46,-133.49 -23.59,-195.45 -38.47,-281.86 -143.73,-281.86"
         style="fill:#5cb0e5;fill-opacity:1;fill-rule:nonzero;stroke:none"
         id="path74" />
      <path
         d="m 5571.33,5100.44 c -10.34,0 -21.2,-0.04 -32.57,-0.04 0,0 -34.32,-386.92 -52.59,-708.49 22.18,-4.5 41.82,-6.7 59.27,-6.7 150.93,0 137.52,164.61 176.77,428.79 41.2,277.38 -2.94,286.44 -150.88,286.44 z m 0.01,-31.5 c 59.74,0 100.15,-1.45 116.94,-20.92 21.73,-25.2 22.59,-95.95 2.76,-229.39 -7.15,-48.16 -12.65,-93.72 -17.51,-133.92 -24.45,-202.53 -39.78,-268 -128.09,-268 -8.05,0 -16.8,0.57 -26.18,1.69 15.39,260.85 40.44,558.39 48.38,650.54 h 3.69 0.01"
         style="fill:#152531;fill-opacity:1;fill-rule:nonzero;stroke:none"
         id="path76" />
      <path
         d="M 6627.12,4935.54 C 6390.45,2392.38 5415.84,404.059 4450.26,494.488 3484.69,584.93 2893.79,2719.87 3130.47,5263.02 3367.14,7806.17 4341.75,9794.49 5307.33,9704.06 6272.9,9613.63 6863.8,7478.69 6627.12,4935.54 Z M 5230.01,9837.31 C 4152.1,9936.97 3070.96,7818.59 2815.21,5105.79 2559.46,2392.98 3225.95,113.031 4303.86,13.3789 5381.77,-86.2813 6462.92,2032.1 6718.67,4744.9 6974.42,7457.71 6307.92,9737.66 5230.01,9837.31"
         style="fill:#2f72ab;fill-opacity:1;fill-rule:nonzero;stroke:none"
         id="path78" />
      <path
         d="M 6627.12,4935.54 C 6390.45,2392.38 5415.84,404.059 4450.26,494.488 3484.69,584.93 2893.79,2719.87 3130.47,5263.02 3367.14,7806.17 4341.75,9794.49 5307.33,9704.06 6272.9,9613.63 6863.8,7478.69 6627.12,4935.54 Z M 5230.01,9837.31 C 4152.1,9936.97 3070.96,7818.59 2815.21,5105.79 2559.46,2392.98 3225.95,113.031 4303.86,13.3789 5381.77,-86.2813 6462.92,2032.1 6718.67,4744.9 6974.42,7457.71 6307.92,9737.66 5230.01,9837.31 Z"
         style="fill:none;stroke:#2f72ab;stroke-width:20;stroke-linecap:butt;stroke-linejoin:miter;stroke-miterlimit:10;stroke-dasharray:none;stroke-opacity:1"
         id="path80" />
      <path
         d="M 4055.41,6643.89 C 6498.88,7387.38 8707,7239.96 8987.4,6314.62 9267.79,5389.29 7514.27,4036.44 5070.81,3292.96 2627.34,2549.47 419.219,2696.89 138.824,3622.22 -141.566,4547.56 1611.95,5900.4 4055.41,6643.89 Z M 44.6289,3500.47 C 358.844,2467.97 2727.53,2271.43 5335.24,3061.48 7942.95,3851.52 9802.19,5328.99 9487.98,6361.49 9173.76,7393.99 6805.07,7590.53 4197.36,6800.48 1589.65,6010.43 -269.59,4532.97 44.6289,3500.47"
         style="fill:#2f72ab;fill-opacity:1;fill-rule:nonzero;stroke:none"
         id="path82" />
      <path
         d="M 4055.41,6643.89 C 6498.88,7387.38 8707,7239.96 8987.4,6314.62 9267.79,5389.29 7514.27,4036.44 5070.81,3292.96 2627.34,2549.47 419.219,2696.89 138.824,3622.22 -141.566,4547.56 1611.95,5900.4 4055.41,6643.89 Z M 44.6289,3500.47 C 358.844,2467.97 2727.53,2271.43 5335.24,3061.48 7942.95,3851.52 9802.19,5328.99 9487.98,6361.49 9173.76,7393.99 6805.07,7590.53 4197.36,6800.48 1589.65,6010.43 -269.59,4532.97 44.6289,3500.47 Z"
         style="fill:none;stroke:#2f72ab;stroke-width:20;stroke-linecap:butt;stroke-linejoin:miter;stroke-miterlimit:10;stroke-dasharray:none;stroke-opacity:1"
         id="path84" />
      <path
         d="M 5809.78,6464.14 C 7770.46,4827.37 8856.92,2899.38 8236.44,2157.84 7615.96,1416.31 5523.51,2142.04 3562.83,3778.81 1602.15,5415.58 515.695,7343.58 1136.17,8085.11 c 620.48,741.53 2712.93,15.8 4673.61,-1620.97 z M 982.707,8097.2 C 291.113,7268.66 1424.44,5179.43 3514.06,3430.77 5603.68,1682.11 7858.3,936.211 8549.9,1764.75 9241.49,2593.29 8108.17,4682.53 6018.55,6431.18 3928.93,8179.84 1674.3,8925.75 982.707,8097.2"
         style="fill:#2f72ab;fill-opacity:1;fill-rule:nonzero;stroke:none"
         id="path86" />
      <path
         d="M 5809.78,6464.14 C 7770.46,4827.37 8856.92,2899.38 8236.44,2157.84 7615.96,1416.31 5523.51,2142.04 3562.83,3778.81 1602.15,5415.58 515.695,7343.58 1136.17,8085.11 c 620.48,741.53 2712.93,15.8 4673.61,-1620.97 z M 982.707,8097.2 C 291.113,7268.66 1424.44,5179.43 3514.06,3430.77 5603.68,1682.11 7858.3,936.211 8549.9,1764.75 9241.49,2593.29 8108.17,4682.53 6018.55,6431.18 3928.93,8179.84 1674.3,8925.75 982.707,8097.2 Z"
         style="fill:none;stroke:#2f72ab;stroke-width:20;stroke-linecap:butt;stroke-linejoin:miter;stroke-miterlimit:10;stroke-dasharray:none;stroke-opacity:1"
         id="path88" />
      <path
         d="m 7971.02,6763.31 c -195.73,0 -354.98,159.24 -354.98,354.97 0,195.73 159.25,354.97 354.98,354.97 195.73,0 354.97,-159.24 354.97,-354.97 0,-195.73 -159.24,-354.97 -354.97,-354.97"
         style="fill:#6fd0e9;fill-opacity:1;fill-rule:nonzero;stroke:none"
         id="path90" />
      <path
         d="m 7971.01,7499.68 c -210.64,0 -381.4,-170.76 -381.4,-381.4 0,-210.64 170.76,-381.4 381.4,-381.4 210.65,0 381.41,170.76 381.41,381.4 0,210.64 -170.76,381.4 -381.41,381.4 z m 0,-52.86 c 181.16,0 328.55,-147.38 328.55,-328.54 0,-181.16 -147.39,-328.54 -328.55,-328.54 -181.15,0 -328.54,147.38 -328.54,328.54 0,181.16 147.39,328.54 328.54,328.54"
         style="fill:#2f72ab;fill-opacity:1;fill-rule:nonzero;stroke:none"
         id="path92" />
      <path
         d="m 2094.07,8010.41 c -196.7,0 -356.71,160.03 -356.71,356.72 0,196.69 160.01,356.71 356.71,356.71 196.69,0 356.72,-160.02 356.72,-356.71 0,-196.69 -160.03,-356.72 -356.72,-356.72"
         style="fill:#6fd0e9;fill-opacity:1;fill-rule:nonzero;stroke:none"
         id="path94" />
      <path
         d="m 2094.07,8750.41 c -211.68,0 -383.28,-171.6 -383.28,-383.28 0,-211.68 171.6,-383.28 383.28,-383.28 211.68,0 383.28,171.6 383.28,383.28 0,211.68 -171.6,383.28 -383.28,383.28 z m 0,-53.12 c 182.05,0 330.16,-148.11 330.16,-330.16 0,-182.05 -148.11,-330.16 -330.16,-330.16 -182.05,0 -330.16,148.11 -330.16,330.16 0,182.05 148.11,330.16 330.16,330.16"
         style="fill:#2f72ab;fill-opacity:1;fill-rule:nonzero;stroke:none"
         id="path96" />
      <path
         d="m 5313.43,388.5 c -196.69,0 -356.71,160.02 -356.71,356.719 0,196.691 160.02,356.711 356.71,356.711 196.7,0 356.72,-160.02 356.72,-356.711 0,-196.699 -160.02,-356.719 -356.72,-356.719"
         style="fill:#6fd0e9;fill-opacity:1;fill-rule:nonzero;stroke:none"
         id="path98" />
      <path
         d="m 5313.43,1128.5 c -211.67,0 -383.27,-171.602 -383.27,-383.281 0,-211.68 171.6,-383.278 383.27,-383.278 211.68,0 383.28,171.598 383.28,383.278 0,211.679 -171.6,383.281 -383.28,383.281 z m 0,-53.12 c 182.05,0 330.16,-148.11 330.16,-330.161 0,-182.051 -148.11,-330.16 -330.16,-330.16 -182.05,0 -330.15,148.109 -330.15,330.16 0,182.051 148.1,330.161 330.15,330.161"
         style="fill:#2f72ab;fill-opacity:1;fill-rule:nonzero;stroke:none"
         id="path100" />
      <path
         d="m 4695.82,3574.95 c -359.34,0 -557.36,103.24 -643.4,164.78 -21.25,15.2 -91.1,71.06 -98.13,151.94 -32.04,369.03 -89.47,1427.83 -98.65,1598.69 l 1725.85,11.37 -111.89,-1573.72 c -5.15,-77.48 -79.59,-157.37 -146.57,-198.85 -113.59,-70.35 -314.62,-154.21 -627.21,-154.21"
         style="fill:#225183;fill-opacity:1;fill-rule:nonzero;stroke:none"
         id="path102" />
      <path
         d="m 5605.41,5524.16 -1773.26,-11.68 c 0,0 64.8,-1217.82 99.95,-1622.74 7.05,-81.22 68.6,-140.4 107.36,-168.12 91.99,-65.79 294,-168.95 656.37,-168.95 318.89,0 524.04,86.4 638.93,157.55 72.62,44.98 151.35,130.39 157.06,216.21 l 113.59,1597.73 z m -47.85,-44.86 -110.19,-1549.91 c -4.42,-66.43 -71.8,-141.49 -136.07,-181.3 -111.12,-68.83 -308.11,-150.87 -615.47,-150.87 -353.13,0 -546.58,100.64 -630.46,160.63 -19.28,13.79 -82.69,64.34 -88.89,135.75 -30.79,354.65 -85.08,1347.49 -97.35,1574.64 l 1678.43,11.06"
         style="fill:#152531;fill-opacity:1;fill-rule:nonzero;stroke:none"
         id="path104" />
      <path
         d="m 4691.04,3677.56 c -329.67,0 -511.33,92.33 -590.28,147.37 -30.72,21.41 -49.6,54.72 -51.8,91.38 l -88.39,1472.9 1504.05,9.66 -93.83,-1412.61 c -4.8,-70.38 -43.82,-134.24 -104.36,-170.8 -104.19,-62.91 -288.6,-137.9 -575.39,-137.9"
         style="fill:#235485;fill-opacity:1;fill-rule:nonzero;stroke:none"
         id="path106" />
      <path
         d="m 5486.17,5419.17 -1547,-9.94 89.66,-1494.14 c 2.57,-42.78 24.86,-81.93 60.4,-106.71 84.34,-58.8 269.56,-150.99 601.81,-150.99 292.38,0 480.48,77.21 585.81,140.81 66.59,40.2 108.82,110.02 114.06,186.72 l 95.26,1434.25 z m -43.11,-40.6 -92.38,-1390.9 c -4.36,-63.87 -39.75,-121.8 -94.67,-154.95 -102.01,-61.59 -282.84,-135.01 -564.97,-135.01 -324.15,0 -501.74,90.06 -578.75,143.75 -25.63,17.87 -41.38,45.59 -43.2,76.05 l -87.12,1451.68 1461.09,9.38"
         style="fill:#152531;fill-opacity:1;fill-rule:nonzero;stroke:none"
         id="path108" />
      <path
         d="m 3848.31,5281.33 c -90.93,0.7 -164.7,73.22 -167.96,165.11 l -12.9,363.72 c -2.46,69.59 41.7,132.03 107.41,151.83 132.58,39.98 392.15,87.63 875.8,87.63 400.25,0 796.06,-32.62 984.93,-81.16 93.1,-23.93 105.9,-88.82 99.36,-225.25 l -13.29,-278.08 c -5.27,-110.22 -94.88,-196.55 -203.99,-196.55 -0.01,0 -1669.36,12.75 -1669.36,12.75"
         style="fill:#2f72ab;fill-opacity:1;fill-rule:nonzero;stroke:none"
         id="path110" />
      <path
         d="m 4650.65,6069.62 c -486.5,0 -748,-48.21 -881.57,-88.48 -74.53,-22.46 -124.39,-93.18 -121.61,-171.69 l 12.89,-363.72 c 3.63,-102.34 86.42,-183.63 187.8,-184.4 l 1667.77,-12.74 c 0.58,-0.01 1.16,-0.01 1.73,-0.01 119.54,0 218.2,94.79 223.98,215.59 l 13.3,278.08 c 5.72,119.75 1.62,215.77 -114.37,245.58 -188.09,48.34 -586.4,81.79 -989.92,81.79 z m 0,-40 c 398.73,0 792.55,-32.36 979.96,-80.53 80.1,-20.58 90.48,-77.27 84.37,-204.93 l -13.29,-278.08 c -4.76,-99.53 -85.6,-177.5 -184.03,-177.5 l -1.42,0.01 -1667.78,12.74 c -80.18,0.61 -145.25,64.66 -148.12,145.81 l -12.9,363.73 c -2.14,60.52 36.18,114.79 93.19,131.98 131.3,39.58 388.82,86.77 870.02,86.77"
         style="fill:#152531;fill-opacity:1;fill-rule:nonzero;stroke:none"
         id="path112" />
      <path
         d="m 4355.31,4648.72 c -5.28,0 -10.61,0.15 -15.99,0.46 -50.17,2.88 -96.91,19.02 -131.59,45.47 -37.57,28.66 -57.02,65.97 -54.77,105.1 4.21,73.39 84.34,128.73 186.38,128.73 5.28,0 10.6,-0.15 15.97,-0.46 50.18,-2.88 96.92,-19.03 131.6,-45.48 37.56,-28.64 57.01,-65.97 54.77,-105.09 -4.21,-73.39 -84.33,-128.73 -186.37,-128.73"
         style="fill:#5cb0e5;fill-opacity:1;fill-rule:nonzero;stroke:none"
         id="path114" />
      <path
         d="m 4339.34,4953.48 v 0 c -115.5,0 -206.36,-65.48 -211.34,-152.3 -2.7,-46.98 20.84,-93.06 64.57,-126.41 38.61,-29.44 90.22,-47.39 145.32,-50.55 5.79,-0.33 11.65,-0.5 17.41,-0.5 115.5,0 206.36,65.47 211.34,152.3 5.29,92.17 -86.91,169.9 -209.89,176.96 -5.79,0.33 -11.65,0.5 -17.41,0.5 z m 0,-50 c 4.8,0 9.65,-0.14 14.55,-0.42 93.55,-5.37 166.46,-60.96 162.83,-124.18 -3.43,-59.91 -74.38,-105.16 -161.42,-105.16 -4.81,0 -9.65,0.14 -14.55,0.42 -93.56,5.36 -166.46,60.96 -162.83,124.18 3.43,59.9 74.38,105.16 161.42,105.16"
         style="fill:#1b3e60;fill-opacity:1;fill-rule:nonzero;stroke:none"
         id="path116" />
      <path
         d="m 5096.39,4648.74 c -102.45,0 -182.75,55.56 -186.77,129.24 -4.28,78.18 77.76,144.1 186.77,150.06 5.12,0.28 10.19,0.42 15.22,0.42 102.46,0 182.77,-55.56 186.79,-129.23 4.28,-78.2 -77.76,-144.12 -186.77,-150.07 -5.11,-0.29 -10.21,-0.42 -15.24,-0.42"
         style="fill:#5cb0e5;fill-opacity:1;fill-rule:nonzero;stroke:none"
         id="path118" />
      <path
         d="m 5111.62,4953.46 v 0 c -5.5,0 -11.08,-0.16 -16.6,-0.46 -123,-6.72 -215.4,-84.2 -210.37,-176.39 4.77,-87.15 95.8,-152.87 211.75,-152.87 5.49,0 11.07,0.15 16.59,0.45 55.12,3.02 106.77,20.83 145.46,50.17 43.82,33.23 67.48,79.24 64.91,126.23 -4.76,87.15 -95.79,152.87 -211.74,152.87 z m 0,-50 c 87.36,0 158.53,-45.53 161.82,-105.6 3.45,-63.23 -69.6,-118.63 -163.18,-123.74 -4.66,-0.26 -9.28,-0.38 -13.86,-0.38 -87.36,0 -158.54,45.52 -161.82,105.6 -3.46,63.22 69.6,118.62 163.17,123.74 4.66,0.25 9.29,0.38 13.87,0.38"
         style="fill:#1b3e60;fill-opacity:1;fill-rule:nonzero;stroke:none"
         id="path120" />
    </g>
  </g>
</svg>
