<svg width="1272" height="1315" viewBox="0 0 1272 1315" fill="none" xmlns="http://www.w3.org/2000/svg">
<mask id="mask0_1_3" style="mask-type:luminance" maskUnits="userSpaceOnUse" x="500" y="462" width="259" height="199">
<path d="M758.245 561.501C758.245 616 700.619 660.181 629.532 660.181C558.445 660.181 500.819 616 500.819 561.501C500.819 507.002 558.445 462.822 629.532 462.822C700.619 462.822 758.245 507.002 758.245 561.501Z" fill="white"/>
</mask>
<g mask="url(#mask0_1_3)">
<path d="M629.533 657.514C560.031 657.514 503.485 614.443 503.485 561.501C503.485 508.559 560.031 465.489 629.533 465.489C699.035 465.489 755.579 508.559 755.579 561.501C755.579 614.443 699.035 657.514 629.533 657.514Z" fill="#214D72"/>
<path d="M629.532 462.822C558.445 462.822 500.819 507.002 500.819 561.501C500.819 616 558.445 660.181 629.532 660.181C700.619 660.181 758.245 616 758.245 561.501C758.245 507.002 700.619 462.822 629.532 462.822ZM629.532 468.156C697.564 468.156 752.912 510.03 752.912 561.501C752.912 612.972 697.564 654.848 629.532 654.848C561.5 654.848 506.152 612.972 506.152 561.501C506.152 510.03 561.5 468.156 629.532 468.156Z" fill="#152531"/>
<path d="M752.539 574.138C752.539 628.637 697.239 672.817 629.023 672.817C560.807 672.817 505.507 628.637 505.507 574.138C505.507 519.64 560.807 475.459 629.023 475.459C697.239 475.459 752.539 519.64 752.539 574.138Z" fill="#1C446C"/>
</g>
<path d="M629.023 449.063C632.501 458.767 631.7 470.013 632.421 480.134C632.78 490.171 633.137 501.218 633.239 511.205C633.325 518.109 633.355 525.013 633.201 531.918H624.844C624.508 514.786 625.012 497.282 625.624 480.134C626.348 470.003 625.543 458.785 629.023 449.063Z" fill="#152531"/>
<path d="M608.539 456.095C612.017 465.799 611.216 477.045 611.937 487.166C612.296 497.204 612.653 508.25 612.755 518.236C612.841 525.141 612.871 532.045 612.717 538.949H604.36C604.024 521.818 604.528 504.314 605.14 487.166C605.864 477.036 605.059 465.815 608.539 456.095Z" fill="#152531"/>
<path d="M649.812 454.567C653.291 464.27 652.489 475.515 653.212 485.637C653.569 495.675 653.928 506.722 654.028 516.707C654.115 523.611 654.144 530.517 653.991 537.421H645.635C645.297 520.289 645.801 502.785 646.413 485.637C647.137 475.506 646.332 464.287 649.812 454.567Z" fill="#152531"/>
<path d="M668.768 461.6C672.247 471.302 671.445 482.548 672.167 492.669C672.525 502.708 672.883 513.754 672.984 523.739C673.071 530.643 673.1 537.547 672.947 544.453H664.589C664.253 527.321 664.757 509.817 665.369 492.669C666.093 482.538 665.288 471.32 668.768 461.6Z" fill="#152531"/>
<path d="M688.029 467.102C691.507 476.806 690.707 488.051 691.428 498.173C691.787 508.21 692.144 519.257 692.245 529.242C692.332 536.147 692.361 543.052 692.208 549.956H683.851C683.515 532.825 684.019 515.319 684.631 498.173C685.355 488.042 684.549 476.822 688.029 467.102Z" fill="#152531"/>
<path d="M705.761 475.052C709.24 484.754 708.439 496 709.16 506.121C709.519 516.16 709.877 527.206 709.977 537.192C710.064 544.096 710.093 551.001 709.94 557.905H701.583C701.247 540.773 701.751 523.269 702.363 506.121C703.087 495.99 702.281 484.772 705.761 475.052Z" fill="#152531"/>
<path d="M723.188 487.586C726.667 497.29 725.865 508.536 726.587 518.657C726.945 528.694 727.304 539.741 727.404 549.726C727.491 556.632 727.52 563.536 727.367 570.44H719.009C718.673 553.309 719.177 535.804 719.789 518.657C720.513 508.526 719.708 497.306 723.188 487.586Z" fill="#152531"/>
<path d="M589.583 461.6C593.061 471.302 592.26 482.548 592.983 492.669C593.34 502.708 593.699 513.754 593.799 523.739C593.885 530.643 593.915 537.547 593.761 544.453H585.405C585.068 527.321 585.572 509.817 586.184 492.669C586.908 482.538 586.103 471.32 589.583 461.6Z" fill="#152531"/>
<path d="M570.323 467.102C573.8 476.806 573 488.051 573.721 498.173C574.079 508.21 574.437 519.257 574.537 529.242C574.624 536.147 574.655 543.052 574.5 549.956H566.144C565.808 532.825 566.311 515.319 566.923 498.173C567.648 488.042 566.843 476.822 570.323 467.102Z" fill="#152531"/>
<path d="M551.979 475.052C555.456 484.754 554.656 496 555.377 506.121C555.735 516.16 556.093 527.206 556.193 537.192C556.281 544.096 556.311 551.001 556.156 557.905H547.8C547.464 540.774 547.967 523.269 548.579 506.121C549.304 495.99 548.499 484.772 551.979 475.052Z" fill="#152531"/>
<path d="M533.328 487.586C536.807 497.29 536.005 508.536 536.728 518.657C537.085 528.694 537.444 539.741 537.544 549.726C537.631 556.632 537.66 563.536 537.507 570.44H529.151C528.813 553.309 529.317 535.804 529.929 518.657C530.653 508.526 529.848 497.306 533.328 487.586Z" fill="#152531"/>
<path d="M517.823 723.656C500.776 723.656 499.017 713.361 496.359 687.99C495.853 683.168 495.28 677.702 494.501 671.941C492.127 654.394 492.76 644.633 496.553 640.292C499.929 636.429 506.341 636.14 515.737 636.14L518.92 636.144C519.712 639.912 521.72 655.885 523.719 723.288C521.587 723.532 519.609 723.656 517.823 723.656Z" fill="#5CB0E5"/>
<path d="M515.736 634.025C495.604 634.025 487.409 635.293 492.407 672.225C496.921 705.602 494.124 725.77 517.823 725.77C520.227 725.77 522.904 725.562 525.889 725.141C523.271 635.585 520.579 634.03 520.396 634.03C520.389 634.03 520.385 634.033 520.385 634.033C518.772 634.033 517.221 634.025 515.736 634.025ZM515.736 638.254L517.14 638.255C518.008 644.011 519.773 662.494 521.547 721.378C520.225 721.487 518.981 721.542 517.823 721.542C502.721 721.542 501.151 713.426 498.461 687.77C497.955 682.933 497.38 677.45 496.596 671.658C494.341 654.997 494.835 645.472 498.145 641.682C500.933 638.493 506.92 638.254 515.736 638.254Z" fill="#152531"/>
<path d="M740.058 727.297C738.353 727.297 736.441 727.122 734.36 726.775C736.521 689.434 740.26 645.714 741.093 636.135L743.512 636.133C752.316 636.133 757.867 636.369 760.696 639.649C764.117 643.617 764.365 652.966 761.55 671.917C760.6 678.309 759.869 684.369 759.222 689.715C756.077 715.775 754.093 727.297 740.058 727.297Z" fill="#5CB0E5"/>
<path d="M743.511 634.033C742.132 634.033 740.684 634.038 739.168 634.038C739.168 634.038 734.592 685.627 732.156 728.503C735.113 729.103 737.732 729.397 740.059 729.397C760.183 729.397 758.395 707.449 763.628 672.225C769.121 635.241 763.236 634.033 743.511 634.033ZM743.512 638.233C751.477 638.233 756.865 638.426 759.104 641.022C762.001 644.382 762.116 653.816 759.472 671.608C758.519 678.029 757.785 684.104 757.137 689.464C753.877 716.468 751.833 725.197 740.059 725.197C738.985 725.197 737.819 725.121 736.568 724.972C738.62 690.192 741.96 650.52 743.019 638.233H743.511H743.512Z" fill="#152531"/>
<path d="M884.283 656.02C852.727 995.108 722.779 1260.22 594.035 1248.16C465.292 1236.1 386.505 951.442 418.063 612.356C449.619 273.269 579.567 8.15966 708.311 20.217C837.053 32.2743 915.84 316.933 884.283 656.02ZM698.001 2.45033C554.28 -10.8377 410.128 271.613 376.028 633.32C341.928 995.028 430.793 1299.02 574.515 1312.31C718.236 1325.6 862.389 1043.14 896.489 681.438C930.589 319.73 841.723 15.737 698.001 2.45033Z" fill="#2F72AB"/>
<path d="M884.283 656.02C852.727 995.108 722.779 1260.22 594.035 1248.16C465.292 1236.1 386.505 951.442 418.063 612.356C449.619 273.269 579.567 8.15966 708.311 20.217C837.053 32.2743 915.84 316.933 884.283 656.02ZM698.001 2.45033C554.28 -10.8377 410.128 271.613 376.028 633.32C341.928 995.028 430.793 1299.02 574.515 1312.31C718.236 1325.6 862.389 1043.14 896.489 681.438C930.589 319.73 841.723 15.737 698.001 2.45033Z" stroke="#2F72AB" stroke-width="2.66667" stroke-miterlimit="10"/>
<path d="M541.388 428.24C867.184 329.108 1161.6 348.764 1198.99 472.142C1236.37 595.52 1002.57 775.9 676.775 875.03C350.979 974.162 56.5625 954.506 19.1765 831.129C-18.2089 707.75 215.593 527.372 541.388 428.24ZM6.61713 847.362C48.5125 985.029 364.337 1011.23 712.032 905.894C1059.73 800.556 1307.63 603.56 1265.73 465.893C1223.83 328.226 908.009 302.021 560.315 407.361C212.62 512.701 -35.2787 709.696 6.61713 847.362Z" fill="#2F72AB"/>
<path d="M541.388 428.24C867.184 329.108 1161.6 348.764 1198.99 472.142C1236.37 595.52 1002.57 775.9 676.775 875.03C350.979 974.162 56.5625 954.506 19.1765 831.129C-18.2089 707.75 215.593 527.372 541.388 428.24ZM6.61713 847.362C48.5125 985.029 364.337 1011.23 712.032 905.894C1059.73 800.556 1307.63 603.56 1265.73 465.893C1223.83 328.226 908.009 302.021 560.315 407.361C212.62 512.701 -35.2787 709.696 6.61713 847.362Z" stroke="#2F72AB" stroke-width="2.66667" stroke-miterlimit="10"/>
<path d="M775.304 452.206C1036.73 670.442 1181.59 927.508 1098.86 1026.38C1016.13 1125.25 737.135 1028.49 475.711 810.25C214.287 592.014 69.4259 334.948 152.156 236.077C234.887 137.206 513.88 233.97 775.304 452.206ZM131.694 234.465C39.4817 344.937 190.592 623.501 469.208 856.656C747.824 1089.81 1048.44 1189.26 1140.65 1078.79C1232.87 968.32 1081.76 689.754 803.14 456.601C524.524 223.446 223.907 123.992 131.694 234.465Z" fill="#2F72AB"/>
<path d="M775.304 452.206C1036.73 670.442 1181.59 927.508 1098.86 1026.38C1016.13 1125.25 737.135 1028.49 475.711 810.25C214.287 592.014 69.4259 334.948 152.156 236.077C234.887 137.206 513.88 233.97 775.304 452.206ZM131.694 234.465C39.4817 344.937 190.592 623.501 469.208 856.656C747.824 1089.81 1048.44 1189.26 1140.65 1078.79C1232.87 968.32 1081.76 689.754 803.14 456.601C524.524 223.446 223.907 123.992 131.694 234.465Z" stroke="#2F72AB" stroke-width="2.66667" stroke-miterlimit="10"/>
<path d="M1063.47 412.317C1037.37 412.317 1016.14 391.085 1016.14 364.988C1016.14 338.89 1037.37 317.658 1063.47 317.658C1089.57 317.658 1110.8 338.89 1110.8 364.988C1110.8 391.085 1089.57 412.317 1063.47 412.317Z" fill="#6FD0E9"/>
<path d="M1063.47 314.134C1035.38 314.134 1012.61 336.902 1012.61 364.988C1012.61 393.073 1035.38 415.841 1063.47 415.841C1091.55 415.841 1114.32 393.073 1114.32 364.988C1114.32 336.902 1091.55 314.134 1063.47 314.134ZM1063.47 321.182C1087.62 321.182 1107.27 340.833 1107.27 364.988C1107.27 389.142 1087.62 408.793 1063.47 408.793C1039.31 408.793 1019.66 389.142 1019.66 364.988C1019.66 340.833 1039.31 321.182 1063.47 321.182Z" fill="#2F72AB"/>
<path d="M279.876 246.037C253.649 246.037 232.315 224.7 232.315 198.474C232.315 172.249 253.649 150.913 279.876 150.913C306.101 150.913 327.439 172.249 327.439 198.474C327.439 224.7 306.101 246.037 279.876 246.037Z" fill="#6FD0E9"/>
<path d="M279.876 147.37C251.652 147.37 228.772 170.25 228.772 198.474C228.772 226.698 251.652 249.578 279.876 249.578C308.1 249.578 330.98 226.698 330.98 198.474C330.98 170.25 308.1 147.37 279.876 147.37ZM279.876 154.453C304.149 154.453 323.897 174.201 323.897 198.474C323.897 222.747 304.149 242.495 279.876 242.495C255.603 242.495 235.855 222.747 235.855 198.474C235.855 174.201 255.603 154.453 279.876 154.453Z" fill="#2F72AB"/>
<path d="M709.124 1262.29C682.899 1262.29 661.563 1240.96 661.563 1214.73C661.563 1188.5 682.899 1167.17 709.124 1167.17C735.351 1167.17 756.687 1188.5 756.687 1214.73C756.687 1240.96 735.351 1262.29 709.124 1262.29Z" fill="#6FD0E9"/>
<path d="M709.124 1163.62C680.901 1163.62 658.021 1186.51 658.021 1214.73C658.021 1242.95 680.901 1265.83 709.124 1265.83C737.348 1265.83 760.228 1242.95 760.228 1214.73C760.228 1186.51 737.348 1163.62 709.124 1163.62ZM709.124 1170.71C733.397 1170.71 753.145 1190.46 753.145 1214.73C753.145 1239 733.397 1258.75 709.124 1258.75C684.851 1258.75 665.104 1239 665.104 1214.73C665.104 1190.46 684.851 1170.71 709.124 1170.71Z" fill="#2F72AB"/>
<path d="M626.776 837.432C578.864 837.432 552.461 823.666 540.989 815.461C538.156 813.434 528.843 805.986 527.905 795.202C523.633 745.998 515.976 604.825 514.752 582.044L744.865 580.528L729.947 790.357C729.26 800.688 719.335 811.34 710.404 816.87C695.259 826.25 668.455 837.432 626.776 837.432Z" fill="#225183"/>
<path d="M748.055 577.537L511.62 579.094C511.62 579.094 520.26 741.47 524.947 795.46C525.887 806.289 534.093 814.18 539.261 817.875C551.527 826.647 578.461 840.402 626.777 840.402C669.296 840.402 696.649 828.882 711.968 819.396C721.651 813.398 732.148 802.01 732.909 790.568L748.055 577.537ZM741.675 583.518L726.983 790.173C726.393 799.03 717.409 809.038 708.84 814.346C694.024 823.524 667.759 834.462 626.777 834.462C579.693 834.462 553.9 821.044 542.716 813.045C540.145 811.206 531.691 804.466 530.864 794.945C526.759 747.658 519.52 615.279 517.884 584.993L741.675 583.518Z" fill="#152531"/>
<path d="M626.139 823.75C582.183 823.75 557.961 811.44 547.435 804.101C543.339 801.246 540.821 796.805 540.528 791.917L528.743 595.53L729.283 594.242L716.772 782.59C716.132 791.974 710.929 800.489 702.857 805.364C688.965 813.752 664.377 823.75 626.139 823.75Z" fill="#235485"/>
<path d="M732.156 591.536L525.889 592.861L537.844 792.08C538.187 797.784 541.159 803.004 545.897 806.308C557.143 814.148 581.839 826.44 626.139 826.44C665.123 826.44 690.203 816.145 704.247 807.665C713.125 802.305 718.756 792.996 719.455 782.769L732.156 591.536ZM726.408 596.949L714.091 782.402C713.509 790.918 708.791 798.642 701.468 803.062C687.867 811.274 663.756 821.064 626.139 821.064C582.919 821.064 559.24 809.056 548.972 801.897C545.555 799.514 543.455 795.818 543.212 791.757L531.596 598.2L726.408 596.949Z" fill="#152531"/>
<path d="M513.775 609.914C501.651 609.821 491.815 600.151 491.38 587.899L489.66 539.403C489.332 530.125 495.22 521.799 503.981 519.159C521.659 513.829 556.268 507.475 620.755 507.475C674.121 507.475 726.896 511.825 752.079 518.297C764.492 521.487 766.199 530.139 765.327 548.33L763.555 585.407C762.852 600.103 750.904 611.614 736.356 611.614C736.355 611.614 513.775 609.914 513.775 609.914Z" fill="#2F72AB"/>
<path d="M620.753 504.809C555.887 504.809 521.02 511.237 503.211 516.606C493.273 519.601 486.625 529.03 486.996 539.498L488.715 587.994C489.199 601.64 500.237 612.478 513.755 612.581L736.124 614.28C736.201 614.281 736.279 614.281 736.355 614.281C752.293 614.281 765.448 601.642 766.219 585.536L767.992 548.458C768.755 532.492 768.208 519.689 752.743 515.714C727.664 509.269 674.556 504.809 620.753 504.809ZM620.753 510.142C673.917 510.142 726.427 514.457 751.415 520.88C762.095 523.624 763.479 531.182 762.664 548.203L760.892 585.281C760.257 598.551 749.479 608.947 736.355 608.947L736.165 608.946L513.795 607.247C503.104 607.166 494.428 598.626 494.045 587.806L492.325 539.309C492.04 531.239 497.149 524.003 504.751 521.711C522.257 516.434 556.593 510.142 620.753 510.142Z" fill="#152531"/>
<path d="M581.375 694.262C580.671 694.262 579.96 694.242 579.243 694.201C572.553 693.817 566.321 691.665 561.697 688.138C556.688 684.317 554.095 679.342 554.395 674.125C554.956 664.34 565.64 656.961 579.245 656.961C579.949 656.961 580.659 656.981 581.375 657.022C588.065 657.406 594.297 659.56 598.921 663.086C603.929 666.905 606.523 671.882 606.224 677.098C605.663 686.883 594.98 694.262 581.375 694.262Z" fill="#5CB0E5"/>
<path d="M579.245 653.628C563.845 653.628 551.731 662.358 551.067 673.934C550.707 680.198 553.845 686.342 559.676 690.789C564.824 694.714 571.705 697.108 579.052 697.529C579.824 697.573 580.605 697.596 581.373 697.596C596.773 697.596 608.888 688.866 609.552 677.289C610.257 665 597.964 654.636 581.567 653.694C580.795 653.65 580.013 653.628 579.245 653.628ZM579.245 660.294C579.885 660.294 580.532 660.313 581.185 660.35C593.659 661.066 603.38 668.478 602.896 676.908C602.439 684.896 592.979 690.929 581.373 690.929C580.732 690.929 580.087 690.91 579.433 690.873C566.959 690.158 557.239 682.745 557.723 674.316C558.18 666.329 567.64 660.294 579.245 660.294Z" fill="#1B3E60"/>
<path d="M680.185 694.259C666.525 694.259 655.819 686.851 655.283 677.027C654.712 666.603 665.651 657.814 680.185 657.019C680.868 656.982 681.544 656.963 682.215 656.963C695.876 656.963 706.584 664.371 707.12 674.194C707.691 684.621 696.752 693.41 682.217 694.203C681.536 694.242 680.856 694.259 680.185 694.259Z" fill="#5CB0E5"/>
<path d="M682.216 653.63C681.483 653.63 680.739 653.652 680.003 653.692C663.603 654.588 651.283 664.918 651.953 677.21C652.589 688.83 664.727 697.593 680.187 697.593C680.919 697.593 681.663 697.573 682.399 697.533C689.748 697.13 696.635 694.756 701.793 690.844C707.636 686.413 710.791 680.278 710.448 674.013C709.813 662.393 697.676 653.63 682.216 653.63ZM682.216 660.297C693.864 660.297 703.353 666.368 703.792 674.377C704.252 682.808 694.512 690.194 682.035 690.876C681.413 690.91 680.797 690.926 680.187 690.926C668.539 690.926 659.048 684.857 658.611 676.846C658.149 668.417 667.891 661.03 680.367 660.348C680.988 660.314 681.605 660.297 682.216 660.297Z" fill="#1B3E60"/>
</svg>
